<svg xmlns="http://www.w3.org/2000/svg" width="64" height="64" viewBox="0 0 64 64">
  <title>Robot (illustrated), blinking</title>
  <g fill="none" stroke="#536e85" stroke-width="5" stroke-linecap="round"><path d="m22 40-7 4v5m27-9 7 4v5M26 49v7m12-7v7"/></g>
  <g fill="#90a9be"><path d="M21 54h8v6H18q-3-6 3-6zm14 0h8q6 0 3 6H35z"/><circle cx="14" cy="49" r="4"/><circle cx="50" cy="49" r="4"/><circle cx="18" cy="47" r="2"/><circle cx="46" cy="47" r="2"/></g>
  <path d="M23 35h18l3 15q-12 4-24 0z" fill="#7894ad"/>
  <path d="M24 36h16" fill="none" stroke="#bfcedb" stroke-width="2"/>
  <path d="M29 50h6" fill="none" stroke="#405b73" stroke-width="1.5"/>
  <g fill="#536e85"><rect x="29" y="31" width="6" height="5"/><rect x="11" y="15" width="42" height="10" rx="2"/></g>
  <rect x="16" y="5" width="32" height="28" rx="3" fill="#90a9be"/>
  <path d="M44 6h1q3 0 3 3v21q0 3-3 3H19q-3 0-3-3h28z" fill="#7894ad"/>
  <path d="M20 7h21" fill="none" stroke="#bfcedb" stroke-width="2" stroke-linecap="round"/>
  <path d="M22 20q3 3 6 0m8 0q3 3 6 0" fill="none" stroke="#26394b" stroke-width="2" stroke-linecap="round"/>
  <path d="M22 12q3-2 6 0m8 0q3-2 6 0" fill="none" stroke="#536e85" stroke-width="1.5" stroke-linecap="round"/>
  <path d="M27 25q5 5 10 0" fill="none" stroke="#26394b" stroke-width="1.5" stroke-linecap="round"/>
  <g fill="#bfcedb"><circle cx="19" cy="9" r="1"/><circle cx="44" cy="28" r="1"/></g>
</svg>
